<?xml version="1.0" encoding="UTF-8"?>
<svg id="Layer_1" data-name="Layer 1" xmlns="http://www.w3.org/2000/svg" viewBox="0 0 316 46">
  <defs>
    <style>
      .cls-1 {
        fill: #f4b43a;
      }

      .cls-2 {
        fill: #f8f8f6;
      }

      .cls-3 {
        fill: none;
        stroke: #f4b43a;
        stroke-linecap: square;
        stroke-width: 4.237px;
      }
    </style>
  </defs>
  <g>
    <path class="cls-2" d="m54.498,34.544V10.611h-6.595v23.933h6.595Z"/>
    <path class="cls-2" d="m22.266,34.269h-6.351v-1.409c-2.648,1.743-4.423,1.896-7.176,1.743-2.962,0-8.02-2.386-8.02-7.352,0-6.55,6.989-10.645,14.939-6.938v-1.755c.066-3.549-3.91-3.3-4.979-3.161-2.975.388-4.588,1.519-6.845,2.723l-2.339-4.016c3.105-2.717,6.146-3.887,10.262-3.887,6.425,0,10.509,3.887,10.509,7.528v16.524Zm-6.61-8.723c-4.357-3.109-8.987-2.082-8.987,1.364,0,2.06,2.07,2.975,3.619,2.975,2.072,0,4.195-1.291,5.367-2.717v-1.622Z"/>
    <path class="cls-2" d="m35.829,34.905c-2.263,0-4.291-.535-6.084-1.604s-3.219-2.523-4.277-4.364c-1.029-1.871-1.543-3.979-1.543-6.325s.514-4.439,1.543-6.28c1.058-1.871,2.484-3.341,4.277-4.41s3.821-1.603,6.084-1.603c2.087,0,3.997.371,5.731,1.113,1.764.743,3.16,1.782,4.189,3.118l-3.836,4.632c-.411-.475-.896-.92-1.455-1.336-.558-.416-1.176-.742-1.852-.98-.676-.237-1.381-.356-2.116-.356-1.117,0-2.101.267-2.954.802-.852.504-1.513,1.217-1.984,2.137-.47.921-.705,1.975-.705,3.163,0,1.128.235,2.153.705,3.073.5.921,1.176,1.648,2.028,2.183.853.534,1.823.801,2.91.801.764,0,1.47-.089,2.116-.267.647-.208,1.235-.505,1.764-.891.558-.386,1.073-.861,1.543-1.425l3.792,4.677c-1,1.276-2.396,2.286-4.189,3.028-1.763.743-3.659,1.114-5.687,1.114Z"/>
    <circle class="cls-1" cx="51.166" cy="4.014" r="3.622"/>
    <path class="cls-2" d="m1.914,45.533v-5.252h.81v4.472h2.461v.78H1.914Z"/>
    <path class="cls-2" d="m8.206,45.533v-5.252h3.309v.78h-2.498v3.692h2.498v.78h-3.309Zm.368-2.303v-.781h2.528v.781h-2.528Z"/>
    <path class="cls-2" d="m14.067,45.533l2.033-5.252h.826l2.018,5.252h-.863l-1.2-3.166c-.015-.035-.045-.12-.09-.255-.04-.135-.088-.285-.143-.45-.055-.165-.105-.315-.15-.45-.045-.141-.075-.231-.09-.271l.173-.007c-.03.085-.068.193-.113.323-.04.13-.085.267-.135.412-.045.145-.09.283-.135.413-.045.125-.083.23-.113.315l-1.192,3.136h-.826Zm.901-1.305l.3-.781h2.386l.345.781h-3.031Z"/>
    <path class="cls-2" d="m21.669,45.533v-5.252h2.236c.3,0,.575.075.825.225.255.145.458.345.608.6.15.251.225.533.225.848,0,.285-.075.55-.225.796-.15.245-.35.442-.601.592-.25.145-.527.218-.832.218h-1.426v1.973h-.81Zm3.121,0l-1.335-2.371.832-.187,1.486,2.566-.983-.008Zm-2.311-2.753h1.501c.145,0,.275-.035.39-.105.115-.075.205-.176.27-.301.065-.13.097-.272.097-.427,0-.175-.042-.328-.127-.458-.08-.135-.195-.24-.345-.315-.145-.075-.31-.113-.495-.113h-1.291v1.719Z"/>
    <path class="cls-2" d="m28.686,45.533v-5.252h.728l3.211,4.299-.12.068c-.02-.125-.037-.26-.052-.405-.015-.15-.03-.308-.046-.473-.01-.17-.02-.348-.03-.533-.005-.19-.01-.387-.015-.592-.005-.206-.007-.418-.007-.638v-1.726h.81v5.252h-.742l-3.159-4.141.082-.105c.025.305.045.565.06.78.02.21.035.39.045.54.015.145.025.265.03.36.005.09.008.165.008.225.005.06.007.113.007.158v2.183h-.81Z"/>
    <path class="cls-2" d="m36.241,45.533v-.75h.848v-3.752h-.848v-.75h2.506v.75h-.848v3.752h.848v.75h-2.506Z"/>
    <path class="cls-2" d="m41.82,45.533v-5.252h.727l3.211,4.299-.12.068c-.02-.125-.037-.26-.052-.405-.015-.15-.03-.308-.045-.473-.01-.17-.02-.348-.03-.533-.005-.19-.01-.387-.015-.592-.005-.206-.008-.418-.008-.638v-1.726h.811v5.252h-.743l-3.159-4.141.083-.105c.025.305.045.565.06.78.02.21.035.39.045.54.015.145.025.265.03.36.005.09.007.165.007.225.005.06.008.113.008.158v2.183h-.81Z"/>
    <path class="cls-2" d="m51.918,45.608c-.38,0-.735-.067-1.065-.202-.331-.141-.621-.333-.871-.578-.25-.245-.445-.53-.585-.855-.135-.331-.203-.686-.203-1.066,0-.375.068-.725.203-1.05.14-.325.333-.608.578-.848.25-.245.54-.435.87-.57.33-.135.685-.203,1.065-.203.266,0,.523.038.773.113.255.075.485.18.69.315.205.135.373.29.503.465l-.525.548c-.15-.145-.305-.265-.465-.36-.155-.095-.315-.168-.48-.218-.165-.05-.331-.075-.496-.075-.27,0-.52.047-.75.143-.225.095-.425.227-.6.397-.17.17-.303.37-.398.6-.095.225-.142.473-.142.743,0,.26.05.508.15.743.1.23.237.433.412.608.181.175.386.312.616.412.235.1.482.15.742.15.195,0,.381-.027.556-.082.175-.06.33-.143.465-.248.135-.105.24-.225.315-.36.075-.14.112-.288.112-.443v-.15l.113.105h-1.606v-.802h2.326c.01.055.018.11.023.165.005.05.007.1.007.15.005.045.008.09.008.135,0,.345-.06.66-.18.945-.12.28-.288.523-.503.728-.21.205-.458.365-.743.48-.28.11-.585.165-.915.165Z"/>
  </g>
  <g>
    <path class="cls-3" d="m74.497,43.882V2.118"/>
    <path class="cls-3" d="m74.497,43.882h4.786"/>
    <path class="cls-3" d="m74.497,2.118h4.786"/>
    <path class="cls-2" d="m93.773,32V15.052h7.312c1.065,0,2.01.242,2.833.726.839.484,1.501,1.146,1.985,1.986.501.839.751,1.783.751,2.832,0,1.098-.25,2.083-.751,2.954-.484.856-1.146,1.534-1.985,2.034-.823.5-1.768.75-2.833.75h-3.196v5.666h-4.116Zm4.044-9.273h2.687c.355,0,.678-.089.969-.266.29-.178.524-.42.702-.727.177-.306.266-.662.266-1.065,0-.42-.089-.775-.266-1.065-.178-.291-.412-.517-.702-.678-.291-.162-.614-.242-.969-.242h-2.687v4.043Zm13.44,9.273V15.052h7.626c1.082,0,2.058.234,2.93.702.888.468,1.582,1.114,2.082,1.937.5.807.75,1.727.75,2.76,0,1.065-.25,2.026-.75,2.881-.5.84-1.186,1.501-2.058,1.986-.872.484-1.856.726-2.954.726h-3.704v5.956h-3.922Zm9.394,0l-4.31-7.651,4.213-.605,4.794,8.256h-4.697Zm-5.472-9.104h3.341c.42,0,.783-.088,1.09-.266.322-.194.564-.46.726-.799.177-.339.266-.726.266-1.162s-.097-.815-.29-1.138c-.194-.339-.477-.597-.848-.775-.355-.177-.791-.266-1.307-.266h-2.978v4.406Zm12.375,9.104l6.707-16.948h3.486l6.659,16.948h-4.165l-3.196-8.595c-.129-.339-.258-.702-.387-1.09-.129-.387-.258-.782-.387-1.186-.13-.42-.259-.823-.388-1.211-.113-.403-.21-.774-.29-1.113l.726-.025c-.097.404-.21.799-.339,1.187-.113.387-.234.775-.363,1.162-.113.371-.242.751-.388,1.138-.145.371-.282.759-.411,1.162l-3.196,8.571h-4.068Zm3.196-3.244l1.284-3.099h7.796l1.259,3.099h-10.339Zm24.449,3.486c-1.275,0-2.453-.21-3.535-.629-1.065-.436-1.993-1.042-2.784-1.816-.791-.791-1.404-1.719-1.84-2.785-.42-1.081-.63-2.267-.63-3.559,0-1.259.226-2.421.678-3.486s1.074-1.985,1.865-2.76c.807-.791,1.751-1.405,2.832-1.84,1.098-.436,2.292-.654,3.584-.654.807,0,1.598.105,2.372.315.775.21,1.493.524,2.155.944.678.403,1.259.888,1.743,1.453l-2.518,2.881c-.339-.355-.702-.662-1.089-.92-.371-.275-.783-.484-1.235-.63-.452-.145-.936-.218-1.453-.218-.645,0-1.259.121-1.84.364-.565.226-1.065.556-1.501.992-.419.42-.75.936-.992,1.55-.243.613-.364,1.299-.364,2.058,0,.742.121,1.42.364,2.033.242.598.581,1.114,1.016,1.55.436.436.961.767,1.574.993.63.226,1.324.339,2.082.339.517,0,1.009-.073,1.477-.218.468-.146.896-.339,1.283-.581.404-.259.759-.549,1.066-.872l1.985,3.148c-.403.451-.944.855-1.622,1.21-.662.355-1.404.638-2.227.847-.808.194-1.623.291-2.446.291Zm14.245-.242v-13.316h-5.036v-3.632h14.309v3.632h-5.157v13.316h-4.116Zm13.298,0v-3.462h2.857v-10.024h-2.857v-3.462h9.854v3.462h-2.881v10.024h2.881v3.462h-9.854Zm22.566.242c-1.275,0-2.453-.21-3.535-.629-1.065-.436-1.993-1.042-2.784-1.816-.791-.791-1.404-1.719-1.84-2.785-.42-1.081-.629-2.267-.629-3.559,0-1.259.225-2.421.677-3.486s1.074-1.985,1.865-2.76c.807-.791,1.751-1.405,2.832-1.84,1.098-.436,2.292-.654,3.584-.654.807,0,1.598.105,2.372.315.775.21,1.493.524,2.155.944.678.403,1.259.888,1.744,1.453l-2.518,2.881c-.339-.355-.703-.662-1.09-.92-.371-.275-.783-.484-1.235-.63-.452-.145-.936-.218-1.452-.218-.646,0-1.259.121-1.841.364-.564.226-1.065.556-1.501.992-.419.42-.75.936-.992,1.55-.242.613-.363,1.299-.363,2.058,0,.742.121,1.42.363,2.033.242.598.581,1.114,1.017,1.55.435.436.96.767,1.573.993.63.226,1.324.339,2.082.339.517,0,1.009-.073,1.477-.218.468-.146.896-.339,1.284-.581.403-.259.758-.549,1.065-.872l1.985,3.148c-.403.451-.944.855-1.622,1.21-.662.355-1.404.638-2.227.847-.807.194-1.623.291-2.446.291Zm10.565-.242V15.052h11.815v3.511h-7.821v9.926h8.063v3.511h-12.057Zm1.936-6.949v-3.341h8.789v3.341h-8.789Zm15.484,6.949V15.052h1.889v15.108h8.135v1.84h-10.024Zm13.278,0l6.489-16.948h2.155l6.44,16.948h-2.058l-4.14-10.992c-.113-.307-.242-.662-.388-1.065-.129-.42-.274-.848-.435-1.284-.146-.452-.291-.887-.436-1.307-.129-.42-.25-.791-.363-1.114h.484c-.129.404-.267.815-.412,1.235-.129.404-.266.815-.411,1.235-.146.403-.291.807-.436,1.21-.145.404-.291.807-.436,1.211l-4.116,10.871h-1.937Zm2.76-4.673l.702-1.84h8.014l.775,1.84h-9.491Zm16.872,4.673V15.052h6.876c.985,0,1.832.177,2.542.533.727.339,1.283.831,1.671,1.476.387.63.581,1.381.581,2.252,0,.936-.266,1.743-.799,2.421-.533.662-1.259,1.122-2.179,1.38l-.049-.46c.791.146,1.477.428,2.058.848.582.403,1.033.904,1.356,1.501.339.597.509,1.267.509,2.009,0,.759-.129,1.445-.388,2.058-.258.614-.629,1.138-1.113,1.574-.468.436-1.041.775-1.719,1.017-.662.226-1.405.339-2.228.339h-7.118Zm1.888-1.84h5.085c.726,0,1.356-.121,1.888-.363.549-.259.969-.622,1.259-1.09.307-.468.46-1.009.46-1.622,0-.581-.161-1.09-.484-1.525-.307-.436-.742-.775-1.307-1.017-.549-.242-1.195-.363-1.937-.363h-4.964v5.98Zm0-7.82h4.843c.581,0,1.097-.113,1.549-.339.452-.243.807-.565,1.066-.969.258-.42.387-.888.387-1.404,0-.823-.282-1.485-.847-1.985-.549-.501-1.324-.751-2.325-.751h-4.673v5.448Zm20.747,9.902c-.855,0-1.662-.121-2.421-.363-.759-.242-1.453-.605-2.082-1.09-.63-.484-1.186-1.081-1.671-1.791l1.308-1.453c.758,1.081,1.533,1.84,2.324,2.276.807.436,1.711.654,2.712.654.726,0,1.388-.121,1.985-.364.597-.242,1.065-.581,1.404-1.016.339-.436.509-.937.509-1.502,0-.371-.065-.702-.194-.992-.113-.291-.291-.549-.533-.775-.242-.226-.54-.428-.895-.605-.356-.178-.767-.339-1.235-.485-.452-.145-.961-.29-1.526-.435-.823-.194-1.549-.42-2.179-.678-.613-.275-1.138-.606-1.573-.993-.42-.387-.743-.831-.969-1.332-.21-.516-.315-1.121-.315-1.815,0-.662.138-1.276.412-1.84.291-.565.686-1.05,1.186-1.453.501-.42,1.09-.743,1.768-.969.678-.226,1.404-.339,2.179-.339.872,0,1.646.121,2.324.364.694.226,1.308.565,1.84,1.016.533.452.993.993,1.38,1.623l-1.331,1.307c-.339-.533-.727-.993-1.162-1.38-.42-.387-.888-.678-1.405-.872-.5-.209-1.057-.314-1.67-.314-.711,0-1.34.121-1.889.363-.532.242-.952.581-1.259,1.017-.306.419-.46.904-.46,1.452,0,.404.073.767.218,1.09.145.307.371.581.678.823.323.226.734.436,1.235.63.516.177,1.13.347,1.84.508.839.194,1.59.428,2.252.702.677.275,1.25.605,1.719.993.484.371.847.807,1.089,1.307.258.501.387,1.074.387,1.719,0,1.001-.25,1.881-.75,2.639-.501.743-1.203,1.324-2.107,1.744-.887.419-1.928.629-3.123.629Z"/>
    <path class="cls-3" d="m313.281,2.118v41.764"/>
    <path class="cls-3" d="m313.281,2.118h-4.786"/>
    <path class="cls-3" d="m313.281,43.882h-4.786"/>
  </g>
</svg>